<svg id="Layer_1" data-name="Layer 1" xmlns="http://www.w3.org/2000/svg" xmlns:xlink="http://www.w3.org/1999/xlink" viewBox="0 0 596.4143 189.4371">
  <defs>
    <linearGradient id="linear-gradient" x1="63.156" y1="90.4745" x2="179.904" y2="90.4745" gradientUnits="userSpaceOnUse">
      <stop offset="0.1459" stop-color="#f0115b"></stop>
      <stop offset="1" stop-color="#250770"></stop>
    </linearGradient>
  </defs>
  <g>
    <g id="type">
      <path id="type_CompoundPathItem_" data-name="type &lt;CompoundPathItem&gt;" d="M315.908,129.9609a3.5084,3.5084,0,0,0-2.3469-2.1358c-3.7556-1.0358-7.5577-3.9227-7.5577-7.4362V82.6117c0-21.9835-12.6069-34.5918-34.5885-34.5918-8.89,0-20.4732.6641-31.2309,5.8424a3.5087,3.5087,0,0,0-1.97,2.8227L236.497,74.3727a3.5089,3.5089,0,0,0,5.3762,3.2993,47.22,47.22,0,0,1,24.3893-6.8344c3.85,0,12.8052,1.1474,12.8052,11.7741V84.825q-.4536.0537-.9122.1076c-18.9215,2.2313-47.5157,5.603-47.5157,33.2259,0,18.5566,15.5616,26.8629,30.9843,26.8629,8.0734,0,16.1858-1.2016,22.0216-8.7773a22.1679,22.1679,0,0,0,17.8209,8.7773,16.5546,16.5546,0,0,0,6.572-1.3325A3.5093,3.5093,0,0,0,309.56,142.39l6.0122-9.2738A3.5081,3.5081,0,0,0,315.908,129.9609Zm-49.4742-5.695c-5.4834,0-9.0264-3.4086-9.0264-8.6837,0-5.3089,4.5648-8.0886,8.8368-8.92l12.8235-2.5914v11.9524C275.3928,122.3177,272.34,124.2659,266.4338,124.2659Z" style="fill: #290d41"></path>
      <path id="type_PathItem_" data-name="type &lt;PathItem&gt;" d="M366.14,129.5756a3.508,3.508,0,0,0-2.7263-2.0172c-8.4761-1.131-10.1789-4.3042-10.1789-9.0573V5.509A3.5085,3.5085,0,0,0,348.5318,2.21L328.6137,9.4212a3.5087,3.5087,0,0,0-2.3144,3.2993V123.6536c0,12.1817,9.4821,21.3678,22.0563,21.3678,3.2024,0,6.514,0,9.7179-1.2822a3.5111,3.5111,0,0,0,1.6323-1.3364l6.18-9.4451A3.5093,3.5093,0,0,0,366.14,129.5756Z" style="fill: #290d41"></path>
      <path id="type_PathItem_2" data-name="type &lt;PathItem&gt;" d="M414.0544,129.5756a3.5089,3.5089,0,0,0-2.7264-2.0172c-8.4735-1.131-10.1759-4.3042-10.1759-9.0573V5.509A3.5085,3.5085,0,0,0,396.4488,2.21L376.5277,9.4212a3.5088,3.5088,0,0,0-2.3145,3.2993V123.6536c0,12.1817,9.4807,21.3678,22.0532,21.3678,3.2039,0,6.517,0,9.7209-1.2822a3.5114,3.5114,0,0,0,1.6324-1.3364l6.18-9.4451A3.51,3.51,0,0,0,414.0544,129.5756Z" style="fill: #290d41"></path>
      <path id="type_CompoundPathItem_2" data-name="type &lt;CompoundPathItem&gt;" d="M460.3229,48.02c-13.3716,0-24.587,5.1181-32.434,14.8011-7.0383,8.685-10.9143,20.7139-10.9143,33.8711,0,28.9072,17.42,48.3293,43.3483,48.3293,27.2217,0,42.8342-17.6153,42.8342-48.3293C503.1571,72.4653,489.9125,48.02,460.3229,48.02Zm0,24.7055c9.6981,0,13.8362,7.1675,13.8362,23.9667,0,15.5433-2.2049,23.9664-13.8362,23.9664-12.1438,0-14.693-13.0331-14.693-23.9664C445.63,80.7889,450.5735,72.7254,460.3229,72.7254Z" style="fill: #290d41"></path>
      <path id="type_PathItem_3" data-name="type &lt;PathItem&gt;" d="M593.5935,52.0826a3.5089,3.5089,0,0,0-2.8673-1.4865H571.6647a3.5089,3.5089,0,0,0-3.3221,2.38L552.6137,99.2443,535.462,52.8875a3.5089,3.5089,0,0,0-3.2909-2.2914H511.5644a3.5089,3.5089,0,0,0-3.2726,4.7745l30.7259,79.4527c-1.7957,9.4964-7.8176,25.1607-14.404,25.1607a32.3267,32.3267,0,0,1-11.4747-1.8389,3.5089,3.5089,0,0,0-4.7407,3.2857v19.75a3.5092,3.5092,0,0,0,2.2653,3.2812,49.11,49.11,0,0,0,17.2148,2.9752c20.2355,0,26.9821-20.6191,31.9081-35.6743.7292-2.2285,1.4262-4.3606,2.13-6.3129l32.1153-90.1675A3.5091,3.5091,0,0,0,593.5935,52.0826Z" style="fill: #290d41"></path>
    </g>
    <g id="logoMark">
      <path id="logoMark_CompoundPathItem_" data-name="logoMark &lt;CompoundPathItem&gt;" d="M172.14,86.6209a271.22,271.22,0,0,0,7.334-38.7615,261.2245,261.2245,0,0,0,1.9823-28.0421c.0057-.4514.0106-.9032.0071-1.3548a4.9578,4.9578,0,0,0-4.8849-4.885H133.8915a4.5036,4.5036,0,0,0-3.3155,1.3172c-.0418.0353-.0787.0761-.12.113-.0439.0486-.0929.0929-.1348.1431a4.5118,4.5118,0,0,0-1.3146,3.3117c-.0015,1.1739-.066,2.3463-.0838,3.52C109.1345,9.1081,83.2253,5.8818,60.6167,12.15,33.9689,19.5372,13.2553,40.9041,5.4026,67.2528a80.8935,80.8935,0,0,0-1.8248,39.0836,84.2632,84.2632,0,0,0,16.6816,35.2552c17.2044,21.7978,44.9746,32.8223,72.4639,29.7051a78.2,78.2,0,0,0,36.5076-13.939q.2436,4.5321.3774,9.0707c.0064.2217.005.4438.0057.6655a4.9567,4.9567,0,0,0,4.8848,4.8852h43.0917a4.9565,4.9565,0,0,0,4.8855-4.8852C182.454,140.1352,179.9786,112.5556,172.14,86.6209Zm-63.2086,14.2359c-.1618.2-.4307.5359-.4151.5167q-.6715.8221-1.3764,1.6164c-1.0131,1.1391-2.0788,2.2315-3.2,3.264q-.7493.6907-1.5325,1.3445c-.259.2161-.5215.4275-.7854.6377l-.0064.0053c-.0433.03-.0667.0454-.1248.0858-1.2019.839-2.4024,1.66-3.6816,2.38q-.8652.4862-1.756.9224c-.1916.0936-1.0373.453-1.2785.5656A35.846,35.846,0,0,1,90.858,113.48q-.9876.2525-1.9894.4447c-.2462.0472-1.4509.2107-1.5176.2341a38.5475,38.5475,0,0,1-4.5046.213,24.3642,24.3642,0,0,1-17.7443-7.8106,26.5842,26.5842,0,0,1-4.5578-7.5121,29.64,29.64,0,0,1-1.2274-4.8023c-.0078-.0412-.0213-.1538-.0341-.2656-.0489-.4748-.09-.95-.1156-1.4268q-.0756-1.3838-.0128-2.77.0265-.6255.08-1.2491c.0014-.02.0936-.7221.1135-.9261.122-.7421.2632-1.4814.4413-2.2122q.2958-1.2143.6917-2.401.1587-.4741.3328-.9431c.0873-.2365.1809-.4708.2746-.7051.0071-.01.0326-.0656.095-.2063A23.5953,23.5953,0,0,1,84.3626,66.86q.8334.0306,1.6638.1c.3093.0259.6187.0674.9287.0907,1.055.2,2.1093.3606,3.1537.6227q1.5069.3781,2.9713.8988c.4825.1715.9557.3648,1.4332.5482-1.4246-.5468.4058.1987.7812.3819a37.6835,37.6835,0,0,1,5.45,3.3243c.0979.07.1511.1068.2093.1474.056.05.1326.1169.254.2193.3923.3324.79.6585,1.1742.9991q1.2855,1.1355,2.4754,2.3725,1.1,1.14,2.1228,2.3522c.3455.4085.6733.8313,1.0167,1.2412l.0255.03.0029.0041c.1915.2632.3909.5209.5825.7838a65.3448,65.3448,0,0,1,3.795,5.857c.8727,1.5109,1.6361,3.0808,2.4073,4.6454-.15.2847-.2788.58-.4313.8626a66.4913,66.4913,0,0,1-5.0367,7.9773C109.358,100.2963,109.087,100.6507,108.9309,100.8568Z" style="fill: #290d41"></path>
      <path id="logoMark_PathItem_" data-name="logoMark &lt;PathItem&gt;" d="M171.3108,23.3477h.3249c-.1312,4.6845-.4682,9.3721-.862,14.03q-.3916,4.6473-.9294,9.2808c-.1817,1.57-.3817,3.1383-.5861,4.7059-.0355.27-.0794.6015-.0979.7326q-.08.5717-.1618,1.1433-.2075,1.4542-.4313,2.9063c-.6939,4.5137-1.529,9.0043-2.45,13.478-6.3989-15.1957-15.2959-29.402-27.6063-40.3227.0887-1.9836.1064-3.9691.1462-5.9541Z" style="fill: #80bfd8"></path>
      <path id="logoMark_PathItem_2" data-name="logoMark &lt;PathItem&gt;" d="M154.8619,107.2609c-.0887.204-.1752.4088-.2632.613q-.3469.8023-.7024,1.6011-1.3494,3.0321-2.8365,6.0009a123.98,123.98,0,0,1-6.5153,11.4751q-1.7241,2.6807-3.6035,5.2565c-.3037.4156-.6123.8276-.9209,1.24-.017.0231-.1348.1777-.2427.3182s-.2313.2982-.25.3211c-.6733.8475-1.3551,1.6886-2.054,2.5151-.122.1442-.2582.2757-.381.4191-.3157-2.3039-.6328-4.6083-.994-6.8953a175.326,175.326,0,0,0-7.4518-30.7735c-.9152-2.607-1.9135-5.1937-3.0047-7.74a120.3346,120.3346,0,0,0,5.1048-13.6219,178.8611,178.8611,0,0,0,6.8984-35.9719q2.5935,2.787,4.953,5.7778c.0411.0525.0567.0706.0773.0968.0241.0323.0334.0449.0632.0835.1695.226.34.4508.51.6771q.5736.7678,1.1316,1.5469,1.1919,1.6617,2.3165,3.37a119.307,119.307,0,0,1,8.2784,14.8566c1.4608,3.1038,2.1093,4.6289,3.2352,7.4942q1.6518,4.2052,3.065,8.4993c.2519.7629.4527,1.5414.6946,2.3075-1.7006,5.9646-3.65,11.8587-5.9292,17.6271C155.6573,105.3279,155.2614,106.2949,154.8619,107.2609Z" style="fill: #f9cb5a"></path>
      <path id="logoMark_PathItem_3" data-name="logoMark &lt;PathItem&gt;" d="M139.8335,162.2088h-.5811c-.1192-4.1734-.342-8.3494-.7123-12.5207,1.4218-1.3711,2.8294-2.7615,4.1626-4.2486,10.7282-11.9711,18.2992-26.3773,23.8779-41.3972a259.2944,259.2944,0,0,1,5.4532,40.5564c.36,5.8638.5257,11.7363.6,17.61Z" style="fill: #94d1c6"></path>
      <path id="logoMark_PathItem_4" data-name="logoMark &lt;PathItem&gt;" d="M93.7272,161.4046l.0383-.0051c.11-.0156.22-.0323.3306-.0484C94.1366,161.3447,94.0465,161.3573,93.7272,161.4046Z" style="fill: #f95e10"></path>
      <path id="logoMark_PathItem_5" data-name="logoMark &lt;PathItem&gt;" d="M125.6728,148.0841l-.0235.0192c-.4739.3584-.9493.7155-1.43,1.0644q-2.6319,1.9064-5.4283,3.57-2.7543,1.6362-5.65,3.0139-.7121.3383-1.43.66c-.2136.0956-.43.1859-.6428.284l-.0242.0113c-1.0245.4184-2.0532.8221-3.0948,1.1953a76.2242,76.2242,0,0,1-13.6321,3.4168c-.0738.0117-.1469.0213-.22.0321-.04.0064-.18.0273-.3306.0484-.0716.01-.1426.0206-.2143.0312l.176-.0261c-.0859.0119-.1689.0231-.2263.03-.5854.068-1.17.138-1.756.1973q-1.9923.2009-3.9916.3042a84.0946,84.0946,0,0,1-8.9467-.0034,69.2886,69.2886,0,0,1-36.5494-12.7483,74.5372,74.5372,0,0,1-13.3456-12.37,60.793,60.793,0,0,1-5.0579-6.8044,80.0012,80.0012,0,0,1-4.682-8.1487q-.9642-1.9339-1.8212-3.92c-.054-.1422-.4839-1.1866-.5747-1.417q-.49-1.2507-.9366-2.5176a77.1517,77.1517,0,0,1-2.54-8.8532q-.47-2.1129-.8181-4.2506c-.034-.2088-.1625-1.0884-.1937-1.2767q-.1532-1.1992-.2653-2.404a71.465,71.465,0,0,1-.2576-8.8521,74.4939,74.4939,0,0,1,9.6129-33.875,69.995,69.995,0,0,1,25.06-25.7817,64.8907,64.8907,0,0,1,17.5691-7.3565A73.1627,73.1627,0,0,1,84.352,18.9q4.2462.04,8.477.4713c.6492.0672,1.2976.1437,1.9454.2244l.0589.0069c.05.008.0745.0119.14.022.2823.0438.5661.0837.8485.1279q2.0965.3269,4.1747.7635a76.5614,76.5614,0,0,1,7.417,1.95q1.7464.555,3.4651,1.1959.8525.3184,1.6971.6575c.1164.0467.232.0945.3477.1419-.1589-.0637.5385.2265.713.3037a73.21,73.21,0,0,1,13.15,7.5215c.4867.35.9677.7086,1.4487,1.0667.0561.042.1476.113.2391.1843-.161,2.5832-.3043,5.1677-.5527,7.7446a179.6472,179.6472,0,0,1-3.397,21.9031,139.2882,139.2882,0,0,1-4.7962,16.9453,65.62,65.62,0,0,0-6.2556-8.6074,40.8021,40.8021,0,0,0-26.1426-14.2A33.32,33.32,0,0,0,50.9058,80.8747c-5.0054,15.8706,2.8387,33.6661,18.185,40.29,13.7244,5.9233,29.3644,2.5887,40.5354-6.92a53.8908,53.8908,0,0,0,9.8711-11.3552,169.8519,169.8519,0,0,1,6.4429,25.44q.6248,3.5112,1.14,7.04.12.8145.2341,1.63c.03.2154.0582.4309.0894.646v.0023c.1447,1.1409.293,2.2812.4285,3.4235.19,1.6081.3037,3.2238.4655,4.835-.6889.5953-1.3842,1.1829-2.0937,1.7534C126.0275,147.8025,125.8473,147.94,125.6728,148.0841Z" style="fill: url(#linear-gradient)"></path>
    </g>
  </g>
</svg>